<svg width="40" height="40" viewBox="0 0 40 40" fill="none" xmlns="http://www.w3.org/2000/svg">
<path d="M14.6093 26.0488H7.38979C6.31662 26.0488 5.53613 26.9269 5.53613 27.9025V32.0976C5.53613 33.1708 6.41418 33.9513 7.38979 33.9513H14.6093C15.6825 33.9513 16.463 33.0732 16.463 32.0976V27.9025C16.5605 26.8293 15.6825 26.0488 14.6093 26.0488ZM14.7069 32.0976H7.38979V27.9025H14.7069V32.0976Z" fill="#2B2929"/>
<path d="M35.878 20.878H29.9268L30.3171 20.4878C30.6098 20.0975 30.6098 19.5122 30.2195 19.1219C29.8293 18.8293 29.2439 18.8293 28.8537 19.2195L27.878 20.2927V16.5854C27.878 16.0975 27.4878 15.6097 26.9024 15.6097C26.4146 15.6097 25.9268 16 25.9268 16.5854V20.2927L24.9512 19.2195C24.7561 19.0244 24.561 18.9268 24.2683 18.9268C23.9756 18.9268 23.7805 19.0244 23.5854 19.1219C23.1951 19.5122 23.1951 20.0975 23.4878 20.4878L23.7805 20.878H3.97561C3.4878 20.878 3 21.2683 3 21.8536V39.0244C3 39.5122 3.39024 40 3.97561 40H35.9756C36.4634 40 36.9512 39.6097 36.9512 39.0244V21.7561C36.8537 21.2683 36.4634 20.878 35.878 20.878ZM26.122 22.7317V38.1463H19.0976V22.7317H26.122ZM27.9756 38.1463V22.7317H35V38.1463H27.9756ZM4.85366 38.1463V22.7317H17.1463V38.1463H4.85366Z" fill="#2B2929"/>
<path d="M35.8778 0H18.1217C17.6339 0 17.1461 0.390244 17.1461 0.97561V5.85366C16.9509 5.65854 16.7558 5.56098 16.4631 5.56098H13.9266V0.97561C13.9266 0.487805 13.5363 0 12.9509 0H9.04851C8.5607 0 8.0729 0.390244 8.0729 0.97561V5.56098H5.53631C5.14607 5.56098 4.75582 5.85366 4.65826 6.14634L3.09729 10.7317C2.99973 10.9268 2.99973 11.3171 3.19485 11.5122C3.38997 11.8049 3.68265 11.9024 3.97534 11.9024H35.9753C36.4631 11.9024 36.9509 11.5122 36.9509 10.9268V0.97561C36.8534 0.390244 36.4631 0 35.8778 0ZM18.9997 10.0488V1.85366H26.0241V10.0488H18.9997ZM27.9753 10.0488V1.85366H34.9997V10.0488H27.9753ZM10.0241 6.43902V1.85366H12.0729V6.43902C12.0729 6.92683 12.4631 7.41463 13.0485 7.41463H15.8778L16.8534 10.0488H5.24363L6.21924 7.41463H9.04851C9.53631 7.41463 10.0241 7.02439 10.0241 6.43902Z" fill="#2B2929"/>
<path d="M15.3904 23.2195C14.7074 23.2195 14.1221 23.8048 14.1221 24.4878C14.1221 25.1707 14.7074 25.7561 15.3904 25.7561C16.0733 25.7561 16.6587 25.1707 16.6587 24.4878C16.5611 23.8048 16.0733 23.2195 15.3904 23.2195Z" fill="#2B2929"/>
<path d="M24.4636 25.6585C25.1465 25.6585 25.7319 25.0732 25.7319 24.3902C25.7319 23.7073 25.1465 23.1219 24.4636 23.1219C23.7807 23.1219 23.1953 23.7073 23.1953 24.3902C23.1953 25.1707 23.7807 25.6585 24.4636 25.6585Z" fill="#2B2929"/>
<path d="M29.6345 23.2195C28.9516 23.2195 28.3662 23.8048 28.3662 24.4878C28.3662 25.1707 28.9516 25.7561 29.6345 25.7561C30.3174 25.7561 30.9028 25.1707 30.9028 24.4878C30.8052 23.8048 30.3174 23.2195 29.6345 23.2195Z" fill="#2B2929"/>
<path d="M24.4636 6.92676C23.7807 6.92676 23.1953 7.51212 23.1953 8.19505C23.1953 8.87798 23.7807 9.46334 24.4636 9.46334C25.1465 9.46334 25.7319 8.87798 25.7319 8.19505C25.6343 7.51212 25.1465 6.92676 24.4636 6.92676Z" fill="#2B2929"/>
<path d="M29.6345 6.92676C28.9516 6.92676 28.3662 7.51212 28.3662 8.19505C28.3662 8.87798 28.9516 9.46334 29.6345 9.46334C30.3174 9.46334 30.9028 8.87798 30.9028 8.19505C30.8052 7.51212 30.3174 6.92676 29.6345 6.92676Z" fill="#2B2929"/>
<path d="M12.4636 25.6585C13.1465 25.6585 13.7319 25.0732 13.7319 24.3902C13.7319 23.7073 13.1465 23.1219 12.4636 23.1219C11.7807 23.1219 11.1953 23.7073 11.1953 24.3902C11.1953 25.1707 11.7807 25.6585 12.4636 25.6585Z" fill="#2B2929"/>
<path d="M9.53685 25.6585C10.2198 25.6585 10.8051 25.0732 10.8051 24.3902C10.8051 23.7073 10.2198 23.1219 9.53685 23.1219C8.85392 23.1219 8.26855 23.7073 8.26855 24.3902C8.36612 25.1707 8.85392 25.6585 9.53685 25.6585Z" fill="#2B2929"/>
<path d="M6.70775 25.6585C7.39067 25.6585 7.97604 25.0732 7.97604 24.3902C7.97604 23.7073 7.39067 23.1219 6.70775 23.1219C6.02482 23.1219 5.43945 23.7073 5.43945 24.3902C5.43945 25.1707 6.02482 25.6585 6.70775 25.6585Z" fill="#2B2929"/>
</svg>
