<svg width="40" height="40" viewBox="0 0 40 40" fill="none" xmlns="http://www.w3.org/2000/svg">
<path d="M30.3659 0H8.70732C6.65854 0 5 1.65854 5 3.70732V36.3902C5 38.3415 6.65854 40 8.70732 40H30.3659C32.4146 40 34.0732 38.3415 34.0732 36.2927V3.70732C34.0732 1.65854 32.4146 0 30.3659 0ZM32.122 3.70732V36.3902C32.122 37.3659 31.3415 38.1463 30.3659 38.1463H8.70732C7.73171 38.1463 6.95122 37.3659 6.95122 36.3902V3.70732C6.95122 2.73171 7.73171 1.95122 8.70732 1.95122H30.3659C31.3415 1.95122 32.122 2.73171 32.122 3.70732Z" fill="#2B2929"/>
<path d="M29.1955 32.7805L31.1467 29.8536C31.2443 29.6585 31.3419 29.3658 31.2443 29.0731C31.1467 28.7805 31.0492 28.5853 30.8541 28.4878C30.3663 28.1951 29.7809 28.2927 29.4882 28.7805L28.0248 31.0244L24.9028 26.3414L28.0248 21.6585L29.4882 23.9024C29.7809 24.2927 30.3663 24.4878 30.8541 24.1951C31.3419 23.9024 31.4394 23.3171 31.1467 22.8292L29.1955 19.9024L31.1467 16.9756C31.3419 16.7805 31.3419 16.5853 31.3419 16.2927C31.2443 16 31.1467 15.8049 30.9516 15.7073C30.4638 15.4146 29.8785 15.5122 29.5858 16L28.1224 18.2439L25.0004 13.561L28.1224 8.87803L29.5858 11.1219C29.8785 11.5122 30.4638 11.7073 30.9516 11.4146C31.1467 11.3171 31.3419 11.0244 31.3419 10.8292C31.4394 10.5366 31.3419 10.3414 31.2443 10.0488L29.2931 7.12193L31.2443 4.1951C31.537 3.70729 31.4394 3.12193 30.9516 2.82925C30.7565 2.73169 30.4638 2.63412 30.1711 2.73168C29.8785 2.82925 29.6833 2.92681 29.5858 3.12193L28.1224 5.36583L26.6589 3.12193C26.5614 2.92681 26.2687 2.73168 26.0736 2.73168C25.7809 2.73168 25.5858 2.73169 25.2931 2.82925C24.8053 3.12193 24.7077 3.70729 25.0004 4.1951L26.9516 7.12193L23.8297 11.8049L20.7077 7.12193L22.6589 4.1951C22.9516 3.70729 22.8541 3.12193 22.3663 2.82925C22.1711 2.73169 21.8785 2.63412 21.5858 2.73168C21.2931 2.82925 21.098 2.92681 21.0004 3.12193L19.537 5.36583L18.0736 3.12193C17.7809 2.63412 17.1955 2.53656 16.7077 2.82925C16.2199 3.12193 16.1224 3.70729 16.415 4.1951L18.3663 7.12193L15.2443 11.8049L12.2199 7.21949L14.1711 4.29266C14.4638 3.80486 14.3663 3.21949 13.8785 2.92681C13.6833 2.73168 13.3906 2.63412 13.098 2.73168C12.9028 2.73168 12.7077 2.92681 12.5126 3.12193L11.0492 5.46339L9.48821 3.12193C9.19553 2.73168 8.61016 2.53656 8.12236 2.82925C7.73211 3.21949 7.53699 3.80486 7.82967 4.1951L9.78089 7.12193L7.82967 10.0488C7.53699 10.5366 7.63455 11.1219 8.12236 11.4146C8.5126 11.7073 9.19553 11.6097 9.48821 11.1219L10.9516 8.87803L14.0736 13.561L10.9516 18.2439L9.48821 16C9.19553 15.5122 8.61016 15.4146 8.12236 15.7073C7.63455 16 7.53699 16.5853 7.82967 17.0731L9.78089 20L7.82967 22.9268C7.53699 23.4146 7.63455 24 8.12236 24.2927C8.5126 24.5853 9.19553 24.4878 9.48821 24L10.9516 21.7561L14.0736 26.439L10.9516 31.1219L9.48821 28.878C9.19553 28.3902 8.61016 28.2927 8.12236 28.5853C7.92723 28.6829 7.73211 28.9756 7.73211 29.1707C7.63455 29.4634 7.73211 29.6585 7.82967 29.9512L9.78089 32.878L7.82967 35.8049C7.53699 36.2927 7.63455 36.878 8.12236 37.1707C8.5126 37.4634 9.19553 37.3658 9.48821 36.878L10.9516 34.6341L12.415 36.878C12.7077 37.2683 13.2931 37.4634 13.7809 37.1707C14.2687 36.878 14.3663 36.2927 14.0736 35.8049L12.1224 32.878L15.2443 28.1951L18.3663 32.878L16.415 35.8049C16.1224 36.2927 16.2199 36.878 16.7077 37.1707C17.098 37.4634 17.7809 37.3658 18.0736 36.878L19.537 34.6341L21.0004 36.878C21.2931 37.2683 21.8785 37.4634 22.3663 37.1707C22.8541 36.878 22.9516 36.2927 22.6589 35.8049L20.7077 32.878L23.8297 28.1951L26.9516 32.878L25.0004 35.8049C24.7077 36.2927 24.8053 36.878 25.2931 37.1707C25.6833 37.4634 26.3663 37.3658 26.6589 36.878L28.1224 34.6341L29.5858 36.878C29.7809 37.1707 30.0736 37.2683 30.3663 37.2683C30.5614 37.2683 30.7565 37.1707 30.9516 37.0731C31.4394 36.7805 31.537 36.1951 31.2443 35.7073L29.1955 32.7805ZM26.8541 20L23.7321 24.6829L20.6102 20L23.7321 15.3171L26.8541 20ZM22.5614 26.439L19.4394 31.1219L16.3175 26.439L19.4394 21.7561L22.5614 26.439ZM16.415 13.561L19.537 8.87803L22.6589 13.561L19.537 18.2439L16.415 13.561ZM18.3663 20L15.2443 24.6829L12.1224 20L15.2443 15.3171L18.3663 20Z" fill="#2B2929"/>
</svg>
