<svg width="40" height="40" viewBox="0 0 40 40" fill="none" xmlns="http://www.w3.org/2000/svg">
<path d="M20.317 40C21.0714 40 21.6829 39.3885 21.6829 38.6342C21.6829 37.8798 21.0714 37.2683 20.317 37.2683C19.5627 37.2683 18.9512 37.8798 18.9512 38.6342C18.9512 39.3885 19.5627 40 20.317 40Z" fill="#2B2929"/>
<path d="M29.0973 40C29.8516 40 30.4632 39.3885 30.4632 38.6342C30.4632 37.8798 29.8516 37.2683 29.0973 37.2683C28.343 37.2683 27.7314 37.8798 27.7314 38.6342C27.7314 39.3885 28.343 40 29.0973 40Z" fill="#2B2929"/>
<path d="M11.5368 40C12.2911 40 12.9026 39.3885 12.9026 38.6342C12.9026 37.8798 12.2911 37.2683 11.5368 37.2683C10.7824 37.2683 10.1709 37.8798 10.1709 38.6342C10.1709 39.3885 10.7824 40 11.5368 40Z" fill="#2B2929"/>
<path d="M28.8046 20.5854C29.8777 15.122 30.3655 9.65854 30.3655 4.19512C30.3655 1.85366 28.5119 0 26.268 0H14.5607C12.2192 0 10.268 1.85366 10.268 4.19512C10.268 9.65854 10.8533 15.122 11.829 20.5854C10.5607 21.0732 9.68262 22.3415 9.68262 23.7073V25.3659C9.68262 26.6341 10.6582 27.6098 11.9265 27.6098H19.2436V31.7073C16.1216 31.9024 13.1948 32.878 10.9509 34.439C10.7558 34.6341 10.5607 34.8293 10.5607 35.122C10.5607 35.4146 10.5607 35.7073 10.7558 35.9024C11.0485 36.3902 11.7314 36.4878 12.2192 36.1951C14.1704 34.8293 16.707 33.9512 19.3412 33.7561V35.3171C19.3412 35.9024 19.829 36.2927 20.3168 36.2927C20.8046 36.2927 21.2924 35.8049 21.2924 35.3171V33.7561C23.9265 33.9512 26.4631 34.7317 28.4143 36.1951C28.6094 36.2927 28.8046 36.3902 28.9997 36.3902C29.2924 36.3902 29.6826 36.1951 29.8777 36C30.0729 35.8049 30.0729 35.5122 30.0729 35.2195C30.0729 34.9268 29.8777 34.7317 29.6826 34.5366C27.3412 32.8781 24.4143 31.9024 21.3899 31.8049V27.7073H28.707C29.9753 27.7073 30.9509 26.7317 30.9509 25.4634V23.8049C30.9509 22.3415 30.0729 21.0732 28.8046 20.5854ZM13.1948 22.3415H27.5363C28.3168 22.3415 28.9021 22.9268 28.9021 23.7073V25.3659C28.9021 25.4634 28.8046 25.561 28.707 25.561H12.0241C11.9265 25.561 11.829 25.4634 11.829 25.3659V23.7073C11.829 22.9268 12.4143 22.3415 13.1948 22.3415ZM26.8533 20.2927H13.8777C12.9021 15.0244 12.3168 9.56098 12.3168 4.19512C12.3168 3.02439 13.2924 2.04878 14.4631 2.04878H26.1704C27.3412 2.04878 28.3168 3.02439 28.3168 4.19512C28.3168 9.56098 27.829 14.9268 26.8533 20.2927Z" fill="#2B2929"/>
<path d="M10.7561 17.3659V14.7318C10.7561 13.8537 9.97561 13.0732 9.09756 13.0732H6.65854C5.78049 13.0732 5 13.8537 5 14.7318V17.3659C5 18.9269 6.26829 20.2928 7.92683 20.2928C9.4878 20.2928 10.7561 18.9269 10.7561 17.3659ZM8.70732 15.122V17.4635C8.70732 17.9513 8.31707 18.3415 7.82927 18.3415C7.34146 18.3415 6.95122 17.9513 6.95122 17.4635V15.122H8.70732Z" fill="#2B2929"/>
<path d="M33.9755 13.0732H31.5365C30.6584 13.0732 29.8779 13.8537 29.8779 14.7318V17.3659C29.8779 18.9269 31.1462 20.2928 32.8048 20.2928C34.3657 20.2928 35.7316 19.0245 35.7316 17.3659V14.7318C35.7316 13.7562 34.9511 13.0732 33.9755 13.0732ZM33.6828 15.122V17.4635C33.6828 17.9513 33.2926 18.3415 32.8048 18.3415C32.317 18.3415 31.9267 17.9513 31.9267 17.4635V15.122H33.6828Z" fill="#2B2929"/>
<path d="M20.3174 7.51221C19.732 7.51221 19.3418 8.00001 19.3418 8.48782V17.6585C19.3418 18.2439 19.8296 18.6342 20.3174 18.6342C20.8052 18.6342 21.293 18.1464 21.293 17.6585V8.58538C21.3906 8.00001 20.9028 7.51221 20.3174 7.51221Z" fill="#2B2929"/>
</svg>
