<svg width="108" height="108" viewBox="0 0 108 108" fill="none" xmlns="http://www.w3.org/2000/svg">
<g clip-path="url(#clip0_193_5084)" filter="url(#filter0_d_193_5084)">
<circle cx="54" cy="50" r="50" fill="#FFBC57"/>
<path fill-rule="evenodd" clip-rule="evenodd" d="M67.4969 24.1835C67.8684 24.4106 68.0949 24.8146 68.0949 25.25V47.6297C68.0949 48.3201 67.5353 48.8797 66.8449 48.8797C66.1546 48.8797 65.5949 48.3201 65.5949 47.6297V27.2947L62.0173 29.1271C61.6556 29.3124 61.2263 29.3102 60.8664 29.1213L56.1816 26.6618L51.4969 29.1213C51.133 29.3123 50.6986 29.3123 50.3348 29.1213L45.65 26.6618L40.9652 29.1213C40.5973 29.3145 40.1574 29.3122 39.7916 29.1151L36.5 27.3428V67.8954L39.9134 66.018C40.2885 65.8117 40.7431 65.8117 41.1182 66.018L45.7816 68.5829L50.4451 66.018C51.05 65.6853 51.81 65.906 52.1427 66.5109C52.4754 67.1158 52.2548 67.8759 51.6499 68.2086L46.384 71.1048C46.0089 71.3111 45.5544 71.3111 45.1792 71.1048L40.5158 68.5399L35.8524 71.1048C35.4652 71.3177 34.9942 71.3104 34.6138 71.0855C34.2334 70.8605 34 70.4514 34 70.0095V25.25C34 24.81 34.2313 24.4025 34.609 24.1769C34.9867 23.9512 35.4552 23.9408 35.8426 24.1494L40.3916 26.5989L45.069 24.1433C45.4328 23.9523 45.8672 23.9523 46.231 24.1433L50.9158 26.6028L55.6006 24.1433C55.9644 23.9523 56.3989 23.9523 56.7627 24.1433L61.4546 26.6065L66.2751 24.1374C66.6626 23.939 67.1255 23.9564 67.4969 24.1835Z" fill="white"/>
<path fill-rule="evenodd" clip-rule="evenodd" d="M45.8477 37.0981C45.8477 36.4077 46.4073 35.8481 47.0977 35.8481H60.2622C60.9526 35.8481 61.5122 36.4077 61.5122 37.0981C61.5122 37.7884 60.9526 38.3481 60.2622 38.3481H47.0977C46.4073 38.3481 45.8477 37.7884 45.8477 37.0981Z" fill="white"/>
<path fill-rule="evenodd" clip-rule="evenodd" d="M39.2656 50.2626C39.2656 49.5723 39.8253 49.0126 40.5156 49.0126H56.3131C57.0034 49.0126 57.5631 49.5723 57.5631 50.2626C57.5631 50.953 57.0034 51.5126 56.3131 51.5126H40.5156C39.8253 51.5126 39.2656 50.953 39.2656 50.2626Z" fill="white"/>
<path fill-rule="evenodd" clip-rule="evenodd" d="M39.2656 55.5285C39.2656 54.8381 39.8253 54.2785 40.5156 54.2785H49.7308C50.4212 54.2785 50.9808 54.8381 50.9808 55.5285C50.9808 56.2189 50.4212 56.7785 49.7308 56.7785H40.5156C39.8253 56.7785 39.2656 56.2189 39.2656 55.5285Z" fill="white"/>
<path fill-rule="evenodd" clip-rule="evenodd" d="M45.8477 42.364C45.8477 41.6736 46.4073 41.114 47.0977 41.114H56.3128C57.0032 41.114 57.5628 41.6736 57.5628 42.364C57.5628 43.0543 57.0032 43.614 56.3128 43.614H47.0977C46.4073 43.614 45.8477 43.0543 45.8477 42.364Z" fill="white"/>
<path fill-rule="evenodd" clip-rule="evenodd" d="M39.2656 37.0981C39.2656 36.4077 39.8253 35.8481 40.5156 35.8481H43.1485C43.8389 35.8481 44.3985 36.4077 44.3985 37.0981C44.3985 37.7884 43.8389 38.3481 43.1485 38.3481H40.5156C39.8253 38.3481 39.2656 37.7884 39.2656 37.0981Z" fill="white"/>
<path fill-rule="evenodd" clip-rule="evenodd" d="M39.2656 42.364C39.2656 41.6736 39.8253 41.114 40.5156 41.114H43.1485C43.8389 41.114 44.3985 41.6736 44.3985 42.364C44.3985 43.0543 43.8389 43.614 43.1485 43.614H40.5156C39.8253 43.614 39.2656 43.0543 39.2656 42.364Z" fill="white"/>
<path fill-rule="evenodd" clip-rule="evenodd" d="M65.5278 52.8291C59.6746 52.8291 54.9297 57.574 54.9297 63.4272C54.9297 69.2804 59.6746 74.0253 65.5278 74.0253C71.381 74.0253 76.1259 69.2804 76.1259 63.4272C76.1259 57.574 71.381 52.8291 65.5278 52.8291ZM52.4297 63.4272C52.4297 56.1933 58.2939 50.3291 65.5278 50.3291C72.7617 50.3291 78.6259 56.1933 78.6259 63.4272C78.6259 70.6611 72.7617 76.5253 65.5278 76.5253C58.2939 76.5253 52.4297 70.6611 52.4297 63.4272Z" fill="white"/>
<path fill-rule="evenodd" clip-rule="evenodd" d="M64.213 59.4114C63.4552 59.4114 62.8301 60.0365 62.8301 60.7943C62.8301 61.552 63.4552 62.1772 64.213 62.1772H66.8459C68.9844 62.1772 70.7288 63.9217 70.7288 66.0601C70.7288 68.1986 68.9844 69.943 66.8459 69.943H61.5801C60.8897 69.943 60.3301 69.3834 60.3301 68.693C60.3301 68.0027 60.8897 67.443 61.5801 67.443H66.8459C67.6036 67.443 68.2288 66.8179 68.2288 66.0601C68.2288 65.3024 67.6036 64.6772 66.8459 64.6772H64.213C62.0745 64.6772 60.3301 62.9327 60.3301 60.7943C60.3301 58.6558 62.0745 56.9114 64.213 56.9114H69.4788C70.1692 56.9114 70.7288 57.471 70.7288 58.1614C70.7288 58.8517 70.1692 59.4114 69.4788 59.4114H64.213Z" fill="white"/>
<path fill-rule="evenodd" clip-rule="evenodd" d="M70.8594 63.4272C70.8594 62.7369 71.419 62.1772 72.1094 62.1772H74.7423C75.4326 62.1772 75.9923 62.7369 75.9923 63.4272C75.9923 64.1176 75.4326 64.6772 74.7423 64.6772H72.1094C71.419 64.6772 70.8594 64.1176 70.8594 63.4272Z" fill="white"/>
<path fill-rule="evenodd" clip-rule="evenodd" d="M55.0625 63.4272C55.0625 62.7369 55.6221 62.1772 56.3125 62.1772H58.9454C59.6358 62.1772 60.1954 62.7369 60.1954 63.4272C60.1954 64.1176 59.6358 64.6772 58.9454 64.6772H56.3125C55.6221 64.6772 55.0625 64.1176 55.0625 63.4272Z" fill="white"/>
</g>
<defs>
<filter id="filter0_d_193_5084" x="0" y="0" width="108" height="108" filterUnits="userSpaceOnUse" color-interpolation-filters="sRGB">
<feFlood flood-opacity="0" result="BackgroundImageFix"/>
<feColorMatrix in="SourceAlpha" type="matrix" values="0 0 0 0 0 0 0 0 0 0 0 0 0 0 0 0 0 0 127 0" result="hardAlpha"/>
<feOffset dy="4"/>
<feGaussianBlur stdDeviation="2"/>
<feComposite in2="hardAlpha" operator="out"/>
<feColorMatrix type="matrix" values="0 0 0 0 0 0 0 0 0 0 0 0 0 0 0 0 0 0 0.25 0"/>
<feBlend mode="normal" in2="BackgroundImageFix" result="effect1_dropShadow_193_5084"/>
<feBlend mode="normal" in="SourceGraphic" in2="effect1_dropShadow_193_5084" result="shape"/>
</filter>
<clipPath id="clip0_193_5084">
<rect width="100" height="100" fill="white" transform="translate(4)"/>
</clipPath>
</defs>
</svg>
